<?xml version="1.0" encoding="UTF-8"?><svg xmlns="http://www.w3.org/2000/svg" width="16" height="16" xmlns:xlink="http://www.w3.org/1999/xlink" viewBox="0 0 16 16"><defs><style>.cls-1{fill:url(#linear-gradient-2);}.cls-2{isolation:isolate;}.cls-3{fill:#1288ca;}.cls-4{fill:url(#linear-gradient-5);mix-blend-mode:multiply;}.cls-5{fill:#0966b1;}.cls-6{fill:url(#linear-gradient-3);}.cls-7{fill:url(#linear-gradient);}.cls-8{fill:#29abe2;}.cls-9{fill:url(#linear-gradient-4);}</style><linearGradient id="linear-gradient" x1="9.92" y1="11.09" x2="7.32" y2="15.13" gradientUnits="userSpaceOnUse"><stop offset="0" stop-color="#fff"/><stop offset="1" stop-color="#fff" stop-opacity="0"/></linearGradient><linearGradient id="linear-gradient-2" x1="15.44" y1="-.14" x2="10.81" y2="5.48" xlink:href="#linear-gradient"/><linearGradient id="linear-gradient-3" x1="2.54" y1="11.54" x2="8.43" y2="11.54" gradientUnits="userSpaceOnUse"><stop offset="0" stop-color="#27bcee"/><stop offset="1" stop-color="#127dc2"/></linearGradient><linearGradient id="linear-gradient-4" x1="2.53" y1="4.46" y2="4.46" xlink:href="#linear-gradient-3"/><linearGradient id="linear-gradient-5" x1="5.41" y1="8.87" x2="5.67" y2="14.93" gradientUnits="userSpaceOnUse"><stop offset="0" stop-color="#26489e"/><stop offset="1" stop-color="#fff" stop-opacity="0"/></linearGradient></defs><g class="cls-2"><g id="Layer_1"><path class="cls-5" d="m8.45.63c-.59,0-1.14.03-1.65.08-.46.05-.89.12-1.29.22-.51.12-.97.28-1.39.49l1.25.96.03.03c.35-.17.73-.31,1.12-.41.59-.16,1.23-.24,1.92-.24,3.8,0,6.25,2.46,6.25,6.25,0,.5-.04.98-.13,1.43-.55,2.97-2.83,4.82-6.12,4.82-.68,0-1.31-.08-1.89-.23-.42-.11-.82-.25-1.19-.43-.1-.05-.19-.09-.28-.15-.2-.11-.38-.23-.56-.36l-.63,1.17h0s-.09.18-.09.18l.07.04c.34.19.71.34,1.12.47.16.05.33.1.51.14h0c.4.1.82.17,1.28.22.52.06,1.07.08,1.66.08,4.88,0,7.05-1.83,7.34-6.29.02-.34.03-.71.03-1.08,0-5.25-2.12-7.37-7.37-7.37Z"/><path class="cls-7" d="m8.45,14.25c-.68,0-1.31-.08-1.89-.23-.42-.11-.82-.25-1.19-.43-.1-.05-.19-.09-.28-.15-.2-.11-.38-.23-.56-.36l-.2.38c.16.11.33.22.5.32.09.05.19.1.28.15.37.18.76.33,1.19.43.58.15,1.22.23,1.89.23,2.27,0,4.05-.88,5.13-2.39-1.09,1.3-2.77,2.05-4.87,2.05Z"/><path class="cls-1" d="m8.45.63c-.59,0-1.14.03-1.65.08-.46.05-.89.12-1.29.22-.51.12-.97.28-1.39.49l.19.14c.29-.11.6-.21.94-.29.4-.1.83-.17,1.29-.22.51-.05,1.06-.08,1.65-.08,5.25,0,7.37,2.12,7.37,7.37,0,.38-.01.74-.03,1.08-.11,1.67-.48,2.97-1.16,3.95.85-1,1.3-2.41,1.42-4.29.02-.34.03-.71.03-1.08,0-5.25-2.12-7.37-7.37-7.37Z"/><path class="cls-3" d="m8.45,2.96c-.73.01-1.43.19-2.07.49-.72.34-1.35.83-1.84,1.44l.54.67.55.68c.28-.44.65-.81,1.1-1.08.51-.31,1.09-.49,1.72-.49,1.81,0,3.33,1.52,3.33,3.33,0,.53-.13,1.03-.36,1.48-.55,1.09-1.69,1.85-2.98,1.85-1.21,0-2.29-.68-2.87-1.67l-.63.59-.62.58c.92,1.31,2.45,2.18,4.13,2.21,2.2.04,4.06-1.39,4.75-3.35.19-.53.29-1.1.29-1.69,0-2.77-2.25-5.09-5.04-5.04Z"/><path class="cls-8" d="m8.45,3.81c-.61.01-1.19.16-1.72.4-.65.31-1.22.77-1.65,1.34l.55.68c.28-.44.65-.81,1.1-1.08.51-.31,1.09-.49,1.72-.49,1.81,0,3.33,1.52,3.33,3.33,0,.53-.13,1.03-.36,1.48-.55,1.09-1.69,1.85-2.98,1.85-1.21,0-2.29-.68-2.87-1.67l-.63.59c.76,1.15,2.06,1.91,3.5,1.94,1.83.03,3.38-1.15,3.95-2.79.16-.44.24-.92.24-1.41,0-2.3-1.87-4.23-4.19-4.19Z"/><path class="cls-6" d="m3.88,14.47c.34.19.71.34,1.12.47.16.05.33.1.51.14-.01-.07-.02-.14-.03-.21,0-.03-.01-.07-.01-.1-.01-.07-.02-.14-.03-.21-.01-.09-.02-.19-.03-.28,0-.09-.01-.17-.02-.25,0-.07,0-.15-.01-.22,0-.06,0-.11,0-.17,0-.01,0-.03,0-.04,0-.11,0-.23,0-.34,0-.04,0-.07,0-.11,0-.07,0-.14,0-.2,0-.03,0-.06,0-.09,0-.05,0-.11.01-.16.01-.11.02-.23.04-.34,0-.04.01-.08.02-.12,0-.07.02-.14.03-.2,0-.02,0-.04.01-.06,0-.04.02-.08.02-.12.01-.05.02-.1.03-.14.01-.05.02-.1.03-.14.01-.04.02-.09.03-.13.02-.08.04-.15.07-.23.02-.06.04-.12.06-.18,0,0,0-.01,0-.02.02-.06.04-.13.07-.19,0-.02.01-.03.02-.05.02-.05.04-.1.06-.15.05-.11.09-.22.14-.32.02-.04.03-.07.05-.11.09-.18.19-.35.28-.51.02-.03.04-.06.06-.09.22-.34.44-.62.65-.85.03-.03.06-.06.09-.1.02-.03.05-.05.07-.07l.05-.05c.35-.34,1.1-.51,1.13-.53-2.3.84-4.27,2.28-5.2,3.74-.25.39-.47.79-.65,1.18,0,0,0,0,0,0-.1.21-.05.47.11.64.15.16.31.31.49.45.19.15.4.29.62.42l.07.04Z"/><path class="cls-9" d="m8.43,8c-2.3-.84-4.27-2.28-5.2-3.74-.25-.39-.47-.79-.65-1.17,0,0,0,0,0,0-.1-.21-.06-.46.1-.62.34-.37.74-.67,1.2-.93.08-.04.16-.08.24-.12.42-.2.88-.36,1.39-.49-.03.18-.05.35-.07.52-.04.32-.06.63-.06.92,0,.01,0,.03,0,.04-.05,3.87,2.98,5.54,3.06,5.59Z"/><path class="cls-4" d="m3.88,14.47c.34.19.71.34,1.12.47.16.05.33.1.51.14-.01-.07-.02-.14-.03-.21,0-.03-.01-.07-.01-.1-.01-.07-.02-.14-.03-.21-.01-.09-.02-.19-.03-.28,0-.09-.01-.17-.02-.25,0-.07,0-.15-.01-.22,0-.06,0-.11,0-.17,0-.01,0-.03,0-.04,0-.11,0-.23,0-.34,0-.04,0-.07,0-.11,0-.07,0-.14,0-.2,0-.03,0-.06,0-.09,0-.05,0-.11.01-.16.01-.11.02-.23.04-.34,0-.04.01-.08.02-.12,0-.07.02-.14.03-.2,0-.02,0-.04.01-.06,0-.04.02-.08.02-.12.01-.05.02-.1.03-.14.01-.05.02-.1.03-.14.01-.04.02-.09.03-.13.02-.08.04-.15.07-.23.02-.06.04-.12.06-.18,0,0,0-.01,0-.02.02-.06.04-.13.07-.19,0-.02.01-.03.02-.05.02-.05.04-.1.06-.15.05-.11.09-.22.14-.32.02-.04.03-.07.05-.11.09-.18.19-.35.28-.51.02-.03.04-.06.06-.09.22-.34.44-.62.65-.85.03-.03.06-.06.09-.1.02-.03.05-.05.07-.07l.05-.05c.35-.34,1.1-.51,1.13-.53-2.3.84-4.27,2.28-5.2,3.74-.25.39-.47.79-.65,1.18,0,0,0,0,0,0-.1.21-.05.47.11.64.15.16.31.31.49.45.19.15.4.29.62.42l.07.04Z"/><path class="cls-3" d="m8.43,8c-2.3-.84-4.27-2.28-5.2-3.74-.25-.39-.47-.79-.65-1.17,0,0,0,0,0,0-.1-.21-.06-.46.1-.62.34-.37.74-.67,1.2-.93.08-.04.16-.08.24-.12.42-.2.88-.36,1.39-.49-.03.18-.05.35-.07.52-.04.32-.06.63-.06.92,0,.01,0,.03,0,.04-.05,3.87,2.98,5.54,3.06,5.59Z"/><path class="cls-3" d="m6.3,9.72l3.45-1.72-1.37-.69c-1.84-.92-3.02-2.8-3.01-4.85,0-.02,0-.03,0-.05,0-.01,0-.03,0-.04,0-.29.03-.6.06-.92.02-.17.04-.35.07-.52-.51.12-.97.28-1.39.49-.08.04-.16.08-.24.12.01.16.03.33.05.51.05.38.11.78.21,1.18.35,1.47,1.08,3.04,2.56,4.1l1.07.68-1.47,1.72Z"/><path class="cls-3" d="m9.75,8l-1.37.69c-1.84.92-3.02,2.8-3.01,4.85,0,.02,0,.03,0,.05,0,.01,0,.03,0,.04,0,.29.03.6.06.92.02.17.04.35.07.52-.51-.12-.97-.28-1.39-.49-.08-.04-.16-.08-.24-.12.01-.16.03-.33.05-.51.05-.38.11-.78.21-1.18.35-1.47,1.08-3.04,2.56-4.1l1.07-.68h1.98Z"/><polygon class="cls-8" points="5.74 8.01 1.23 8.03 .18 5.16 5.74 8.01"/><polygon class="cls-8" points="5.74 8.01 1.23 8.03 .18 10.86 5.74 8.01"/></g></g></svg>